<?xml version="1.0" encoding="iso-8859-1"?>
<!-- Generator: Adobe Illustrator 19.0.0, SVG Export Plug-In . SVG Version: 6.00 Build 0)  -->
<svg version="1.1" id="Layer_1" xmlns="http://www.w3.org/2000/svg" xmlns:xlink="http://www.w3.org/1999/xlink" x="0px" y="0px"
	 viewBox="0 0 501.241 501.241" style="enable-background:new 0 0 501.241 501.241;" xml:space="preserve">
<g>
	<g>
		<g>
			<path d="M309.287,149.241h-21.333v-21.333c0-5.867-4.8-10.667-10.667-10.667h-53.333c-5.867,0-10.667,4.8-10.667,10.667v21.333
				h-21.333c-5.867,0-10.667,4.8-10.667,10.667v53.333c0,5.867,4.8,10.667,10.667,10.667h21.333v21.333
				c0,5.867,4.8,10.667,10.667,10.667h53.333c5.867,0,10.667-4.8,10.667-10.667v-21.333h21.333c5.867,0,10.667-4.8,10.667-10.667
				v-53.333C319.954,154.041,315.154,149.241,309.287,149.241z M298.621,202.575h-21.333c-5.867,0-10.667,4.8-10.667,10.667v21.333
				h-32v-21.333c0-5.867-4.8-10.667-10.667-10.667h-21.333v-32h21.333c5.867,0,10.667-4.8,10.667-10.667v-21.333h32v21.333
				c0,5.867,4.8,10.667,10.667,10.667h21.333V202.575z"/>
			<path d="M382.247,5.988c-4.053-4.053-9.6-6.187-15.253-5.973H134.247c-5.653-0.213-11.2,2.027-15.253,5.973
				c-4.8,4.907-7.147,12.16-7.04,22.08c2.56,229.867,46.613,351.36,53.333,368.533v70.72c0,8,6.08,33.92,84.587,33.92
				c79.893,0,86.08-26.773,86.08-34.88v-69.653c6.827-17.28,50.773-137.92,53.333-368.64
				C389.394,18.041,387.154,10.788,382.247,5.988z M249.874,479.908c-45.44,0-60.907-9.6-63.253-13.44v-61.227h128l0.107,60.373
				C314.621,465.828,306.941,479.908,249.874,479.908z M367.954,27.855c-2.24,208.853-40,327.893-50.027,356.053H183.314
				c-10.027-28.267-47.787-147.627-50.027-356.16c-0.107-5.44,0.96-6.827,0.96-6.507l232.747-0.427
				C366.994,20.815,368.061,22.308,367.954,27.855z"/>
		</g>
	</g>
</g>
<g>
</g>
<g>
</g>
<g>
</g>
<g>
</g>
<g>
</g>
<g>
</g>
<g>
</g>
<g>
</g>
<g>
</g>
<g>
</g>
<g>
</g>
<g>
</g>
<g>
</g>
<g>
</g>
<g>
</g>
</svg>
