<?xml version="1.0" encoding="iso-8859-1"?>
<!-- Generator: Adobe Illustrator 18.0.0, SVG Export Plug-In . SVG Version: 6.00 Build 0)  -->
<!DOCTYPE svg PUBLIC "-//W3C//DTD SVG 1.1//EN" "http://www.w3.org/Graphics/SVG/1.1/DTD/svg11.dtd">
<svg version="1.1" id="Capa_1" xmlns="http://www.w3.org/2000/svg" xmlns:xlink="http://www.w3.org/1999/xlink" x="0px" y="0px"
	 viewBox="0 0 60 60" style="enable-background:new 0 0 60 60;" xml:space="preserve">
<g>
	<path d="M26,35.487C26,34.116,24.884,33,23.513,33H0.15c0.155,1.55,0.427,3.065,0.81,4.537l1.719-1.63
		c1.973-1.972,5.185-1.973,7.157,0l0.515,0.515c1.193,1.193,3.135,1.193,4.328,0l0.5-0.5c1.972-1.972,5.184-1.973,7.157,0l0.5,0.5
		c0.68,0.681,1.619,0.962,2.566,0.829L26,35.802V35.487z"/>
	<path d="M23.513,31C25.987,31,28,33.013,28,35.487v0.711l-3.57,8.65c-0.737,1.849-0.512,3.935,0.603,5.583
		c1.117,1.65,2.974,2.636,4.967,2.636s3.85-0.985,4.967-2.636c1.116-1.649,1.341-3.738,0.601-5.588L32,36.196v-0.709
		C32,33.013,34.013,31,36.487,31h23.487C59.986,30.667,60,30.335,60,30C60,13.458,46.542,0,30,0S0,13.458,0,30
		c0,0.335,0.014,0.667,0.025,1H23.513z M30,7c0.553,0,1,0.447,1,1v30.807l2.711,6.779c0.493,1.232,0.344,2.625-0.4,3.724
		c-0.745,1.101-1.982,1.757-3.311,1.757s-2.565-0.656-3.311-1.757c-0.744-1.099-0.894-2.491-0.4-3.725L29,38.807V8
		C29,7.447,29.447,7,30,7z"/>
	<path d="M36.487,33C35.116,33,34,34.116,34,35.487v0.01l0.256-0.135l1.095,1.059c1.193,1.193,3.135,1.193,4.328,0
		c1.973-1.972,5.185-1.974,7.157,0c1.193,1.193,3.135,1.193,4.328,0l0.515-0.515c1.972-1.972,5.184-1.973,7.157,0l0.041,0.041
		l0.452,0.352c0.232-1.08,0.409-2.18,0.521-3.3H36.487z"/>
	<path d="M57.422,37.321c-1.194-1.194-3.137-1.193-4.329,0l-0.515,0.515c-1.973,1.973-5.184,1.973-7.156,0
		c-1.194-1.194-3.137-1.193-4.329,0c-1.561,1.56-3.896,1.887-5.782,0.978l2.098,5.246l0.013,0.031
		c0.001,0.002,0.001,0.004,0.002,0.006l0.002,0.005c0.986,2.466,0.688,5.251-0.802,7.451c-1.49,2.201-3.966,3.515-6.623,3.515
		s-5.133-1.313-6.623-3.515c-1.488-2.199-1.788-4.985-0.802-7.452l1.928-4.821c-1.151-0.11-2.249-0.61-3.081-1.442l-0.5-0.5
		c-1.195-1.194-3.138-1.193-4.329,0l-0.5,0.5c-0.956,0.956-2.227,1.482-3.578,1.482s-2.622-0.526-3.578-1.482l-0.515-0.515
		c-1.195-1.194-3.138-1.193-4.329,0l-0.515,0.515l-1.962,1.858C5.657,51.492,16.85,60,30,60c13.629,0,25.156-9.139,28.797-21.607
		L57.422,37.321z M7,42c-0.552,0-1-0.448-1-1s0.448-1,1-1s1,0.448,1,1S7.552,42,7,42z M10,46c-0.552,0-1-0.448-1-1s0.448-1,1-1
		s1,0.448,1,1S10.552,46,10,46z M15,45c0-0.552,0.448-1,1-1s1,0.448,1,1s-0.448,1-1,1S15,45.552,15,45z M17,51c-0.552,0-1-0.448-1-1
		s0.448-1,1-1s1,0.448,1,1S17.552,51,17,51z M20,43c-0.552,0-1-0.448-1-1s0.448-1,1-1s1,0.448,1,1S20.552,43,20,43z M39,54
		c-0.552,0-1-0.448-1-1s0.448-1,1-1s1,0.448,1,1S39.552,54,39,54z M40,44c-0.552,0-1-0.448-1-1s0.448-1,1-1s1,0.448,1,1
		S40.552,44,40,44z M43,50c-0.552,0-1-0.448-1-1s0.448-1,1-1s1,0.448,1,1S43.552,50,43,50z M45,45c-0.552,0-1-0.448-1-1s0.448-1,1-1
		s1,0.448,1,1S45.552,45,45,45z M50,47c-0.552,0-1-0.448-1-1s0.448-1,1-1s1,0.448,1,1S50.552,47,50,47z"/>
</g>
<g>
</g>
<g>
</g>
<g>
</g>
<g>
</g>
<g>
</g>
<g>
</g>
<g>
</g>
<g>
</g>
<g>
</g>
<g>
</g>
<g>
</g>
<g>
</g>
<g>
</g>
<g>
</g>
<g>
</g>
</svg>
